<?xml version="1.0" encoding="UTF-8"?>
<svg width="85px" height="30px" viewBox="0 0 85 30" version="1.1" xmlns="http://www.w3.org/2000/svg" xmlns:xlink="http://www.w3.org/1999/xlink">
    <!-- Generator: sketchtool 40.3 (33839) - http://www.bohemiancoding.com/sketch -->
    <title>83376965-5202-4598-B5C8-C30CD1A4F17C</title>
    <desc>Created with sketchtool.</desc>
    <defs></defs>
    <g id="Page-1" stroke="none" stroke-width="1" fill="none" fill-rule="evenodd">
        <g id="VAS-landing-page" transform="translate(-678.000000, -2242.000000)" fill="#58595B">
            <g id="appson-logo-bw" transform="translate(678.000000, 2242.000000)">
                <path d="M67.0191,17.5716 L57.5461,22.9126 C57.9081,23.4836 58.3091,24.0296 58.7441,24.5456 L68.0761,29.8076 C68.7351,29.9136 69.4081,29.9786 70.0921,29.9996 L70.0921,22.8166 L67.0191,21.0846 L67.0191,17.5716 Z" id="Fill-1"></path>
                <polygon id="Fill-3" points="72.0751 19.9151 72.0751 10.1351 70.6061 9.3071 69.1361 10.1351 69.1361 19.9151 70.6061 20.7441"></polygon>
                <path d="M70.0917,7.1895 L70.0917,0.0005 C69.4077,0.0215 68.7357,0.0865 68.0767,0.1925 L58.7437,5.4545 C58.3087,5.9705 57.9087,6.5165 57.5457,7.0875 L67.0187,12.4285 L67.0187,8.9215 L70.0917,7.1895 Z" id="Fill-5"></path>
                <path d="M67.0191,13.5473 L57.0501,7.9263 C56.7271,8.5173 56.4421,9.1303 56.2011,9.7643 L56.2011,20.2353 C56.4421,20.8693 56.7271,21.4833 57.0501,22.0733 L67.0191,16.4523 L67.0191,13.5473 Z" id="Fill-7"></path>
                <path d="M74.1997,12.404 L83.6297,7.087 C83.2667,6.516 82.8667,5.971 82.4317,5.454 L73.0987,0.193 C72.4407,0.087 71.7677,0.022 71.0837,0 L71.0837,7.165 L74.1997,8.922 L74.1997,12.404 Z" id="Fill-9"></path>
                <path d="M84.9745,20.2355 L84.9745,9.7645 C84.7325,9.1305 84.4485,8.5165 84.1255,7.9265 L74.1995,13.5225 L74.1995,16.4775 L84.1255,22.0735 C84.4485,21.4835 84.7325,20.8695 84.9745,20.2355" id="Fill-11"></path>
                <g id="Group-15" transform="translate(71.000000, 17.000000)">
                    <path d="M0.084,5.8411 L0.084,13.0001 C0.768,12.9781 1.44,12.9131 2.099,12.8071 L11.432,7.5451 C11.867,7.0291 12.267,6.4841 12.63,5.9131 L3.2,0.5961 L3.2,4.0841 L0.084,5.8411 Z" id="Fill-13"></path>
                </g>
                <path d="M14.417,9.8274 C14.132,9.6384 13.989,9.1214 13.989,8.2774 L13.989,3.1774 L12.155,3.1774 L12.155,9.0774 C12.155,9.9554 12.365,10.5874 12.787,10.9724 C13.418,11.5664 14.481,11.8634 16.058,11.8634 L16.058,10.0404 C15.141,10.0134 14.594,9.9424 14.417,9.8274 L14.417,9.8274 Z M43.981,10.0404 C43.125,9.9934 42.633,9.9384 42.504,9.8784 C42.062,9.6754 41.841,9.3614 41.841,8.9354 L41.841,6.1404 L40.028,6.1404 L40.028,9.1694 C40.028,9.9254 39.603,10.3034 38.754,10.3034 C38.319,10.3034 37.952,10.1654 37.653,9.8884 C37.334,9.6044 37.174,9.2504 37.174,8.8244 L37.174,6.1404 L35.381,6.1404 L35.381,9.1694 C35.381,9.9254 34.962,10.3034 34.123,10.3034 C33.694,10.3034 33.322,10.1664 33.008,9.8934 C32.695,9.6194 32.538,9.2704 32.538,8.8444 L32.538,6.1404 L30.744,6.1404 L30.744,8.4594 C30.744,9.1214 30.571,9.5644 30.225,9.7874 C29.96,9.9554 29.491,10.0404 28.819,10.0404 L15.151,10.0404 L16.015,11.8634 C17.176,11.8634 29.235,11.8334 29.665,11.7724 C30.629,11.6374 31.312,11.3094 31.712,10.7894 C32.358,11.6404 33.176,12.0664 34.168,12.0664 C35.235,12.0664 36.125,11.6644 36.838,10.8604 C37.66,11.6644 38.499,12.0664 39.355,12.0664 C40.204,12.0664 40.91,11.6744 41.474,10.8914 C41.719,11.3234 42.079,11.6034 42.555,11.7314 C42.792,11.8064 43.268,11.8504 43.981,11.8634 L43.981,10.0404 Z M50.024,6.1404 L48.189,6.1404 L48.189,8.6484 C48.189,9.1704 48.093,9.5344 47.899,9.7404 C47.705,9.9474 47.354,10.0504 46.844,10.0504 L43.492,10.0504 L43.492,11.8634 L47.415,11.8634 C48.189,11.8634 48.828,11.5564 49.331,10.9414 C49.793,10.3674 50.024,9.6854 50.024,8.8954 L50.024,6.1404 Z M51.505,11.8634 L53.298,11.8634 L53.298,2.8934 L51.505,2.8934 L51.505,11.8634 Z" id="Fill-16"></path>
                <path d="M47.7415,15.2364 L47.7415,14.2104 C47.7415,13.7754 47.5775,13.4164 47.2485,13.1334 C46.9405,12.8744 46.5755,12.7444 46.1525,12.7444 L44.4385,12.7444 L44.4385,13.7754 L46.0205,13.7754 C46.2995,13.7754 46.4945,13.8294 46.6055,13.9384 C46.7155,14.0474 46.7715,14.2444 46.7715,14.5304 L46.7715,15.2364" id="Fill-18"></path>
                <path d="M0,26.8095 L2.032,26.8095 L2.867,24.7205 L7.058,24.7205 L7.862,26.8095 L9.894,26.8095 L5.944,16.6675 L3.961,16.6675 L0,26.8095 Z M6.334,22.8385 L3.587,22.8385 L4.965,19.3565 L6.334,22.8385 Z M10.97,26.8095 L12.925,26.8095 L12.925,22.5145 C13.921,22.5145 14.608,22.4615 14.985,22.3555 C15.627,22.1715 16.135,21.8455 16.51,21.3765 C16.885,20.9075 17.072,20.3195 17.072,19.6115 C17.072,18.9725 16.929,18.4245 16.643,17.9675 C16.357,17.5095 15.966,17.1795 15.47,16.9745 C14.974,16.7695 14.165,16.6675 13.044,16.6675 L10.97,16.6675 L10.97,26.8095 Z M12.925,18.5495 L13.476,18.5495 C14.082,18.5495 14.496,18.6165 14.719,18.7505 C15.026,18.9305 15.18,19.2165 15.18,19.6085 C15.18,19.8345 15.125,20.0265 15.016,20.1855 C14.907,20.3445 14.756,20.4585 14.566,20.5285 C14.375,20.5975 14.035,20.6325 13.546,20.6325 L12.925,20.6325 L12.925,18.5495 Z M18.55,26.8095 L20.505,26.8095 L20.505,22.5145 C21.501,22.5145 22.187,22.4615 22.565,22.3555 C23.207,22.1715 23.715,21.8455 24.09,21.3765 C24.465,20.9075 24.652,20.3195 24.652,19.6115 C24.652,18.9725 24.509,18.4245 24.223,17.9675 C23.936,17.5095 23.546,17.1795 23.05,16.9745 C22.554,16.7695 21.745,16.6675 20.623,16.6675 L18.55,16.6675 L18.55,26.8095 Z M20.505,18.5495 L21.056,18.5495 C21.661,18.5495 22.076,18.6165 22.299,18.7505 C22.606,18.9305 22.76,19.2165 22.76,19.6085 C22.76,19.8345 22.705,20.0265 22.596,20.1855 C22.487,20.3445 22.336,20.4585 22.146,20.5285 C21.955,20.5975 21.615,20.6325 21.126,20.6325 L20.505,20.6325 L20.505,18.5495 Z M30.02,16.7645 C29.556,16.5295 29.068,16.4125 28.556,16.4125 C27.759,16.4125 27.089,16.6635 26.546,17.1675 C26.003,17.6705 25.731,18.2735 25.731,18.9775 C25.731,19.4645 25.895,19.9525 26.221,20.4425 C26.547,20.9315 27.27,21.6275 28.389,22.5275 C28.977,23.0015 29.357,23.3535 29.529,23.5825 C29.702,23.8125 29.788,24.0425 29.788,24.2725 C29.788,24.5255 29.674,24.7485 29.445,24.9405 C29.217,25.1345 28.935,25.2305 28.599,25.2305 C27.956,25.2305 27.387,24.7825 26.893,23.8865 L25.25,24.8655 C25.636,25.6235 26.101,26.1795 26.644,26.5335 C27.187,26.8875 27.824,27.0645 28.556,27.0645 C29.493,27.0645 30.252,26.7935 30.835,26.2505 C31.417,25.7085 31.708,25.0215 31.708,24.1895 C31.708,23.7625 31.625,23.3675 31.46,23.0065 C31.295,22.6465 31.013,22.2685 30.617,21.8735 C30.458,21.7115 30.006,21.3235 29.26,20.7075 C28.463,20.0415 27.985,19.6075 27.826,19.4045 C27.71,19.2535 27.652,19.0925 27.652,18.9225 C27.652,18.7525 27.733,18.5995 27.896,18.4635 C28.06,18.3275 28.27,18.2605 28.526,18.2605 C29.053,18.2605 29.571,18.6095 30.079,19.3085 L31.527,18.0465 C30.986,17.4255 30.484,16.9985 30.02,16.7645 L30.02,16.7645 Z" id="Fill-20"></path>
                <polygon id="Fill-22" points="44.9098 26.933 46.8648 26.933 46.8648 20.28 51.2548 26.933 53.1348 26.933 53.1348 16.791 51.1798 16.791 51.1798 23.465 46.7848 16.791 44.9098 16.791"></polygon>
                <polygon id="Fill-24" points="5.8238 11.7994 5.8238 10.9684 5.8238 9.0184 5.8238 8.1874 5.3528 7.9154 4.8808 8.1874 4.8808 9.0184 4.8808 10.9684 4.8808 11.7994 5.3528 12.0714"></polygon>
                <polygon id="Fill-26" points="38.837 23.5931 38.837 22.7621 38.837 20.8121 38.837 19.9811 38.366 19.7091 37.894 19.9811 37.894 20.8121 37.894 22.7621 37.894 23.5931 38.366 23.8651"></polygon>
                <path d="M10.5992,10.0278 C10.5992,7.6318 8.9952,5.6148 6.8032,4.9808 L6.8032,6.8548 C7.9862,7.4058 8.8082,8.6028 8.8082,9.9928 C8.8082,11.9068 7.2562,13.4588 5.3422,13.4588 C3.4292,13.4588 1.8782,11.9068 1.8782,9.9928 C1.8782,8.6028 2.6992,7.4058 3.8822,6.8548 L3.8822,4.9808 C1.6912,5.6148 0.0862,7.6318 0.0862,10.0278 C0.0862,12.9308 2.4402,15.2848 5.3422,15.2848 C8.2462,15.2848 10.5992,12.9308 10.5992,10.0278" id="Fill-28"></path>
                <path d="M43.6065,21.6687 C43.6065,18.7657 41.2535,16.4127 38.3495,16.4127 C35.4475,16.4127 33.0935,18.7657 33.0935,21.6687 C33.0935,24.5717 35.4475,26.9247 38.3495,26.9247 C41.2535,26.9247 43.6065,24.5717 43.6065,21.6687 M41.8155,21.6347 C41.8155,23.5477 40.2635,25.0987 38.3495,25.0987 C36.4365,25.0987 34.8855,23.5477 34.8855,21.6347 C34.8855,19.7207 36.4365,18.1697 38.3495,18.1697 C40.2635,18.1697 41.8155,19.7207 41.8155,21.6347" id="Fill-30"></path>
            </g>
        </g>
    </g>
</svg>