<?xml version="1.0" encoding="iso-8859-1"?>
<!-- Generator: Adobe Illustrator 16.0.0, SVG Export Plug-In . SVG Version: 6.00 Build 0)  -->
<!DOCTYPE svg PUBLIC "-//W3C//DTD SVG 1.1//EN" "http://www.w3.org/Graphics/SVG/1.1/DTD/svg11.dtd">
<svg xmlns="http://www.w3.org/2000/svg" xmlns:xlink="http://www.w3.org/1999/xlink" version="1.1" id="Capa_1" x="0px" y="0px" width="512px" height="512px" viewBox="0 0 472.313 472.313" style="enable-background:new 0 0 472.313 472.313;" xml:space="preserve">
<g>
	<path d="M448.728,23.585c-31.442-31.444-82.611-31.444-114.062,0l-86.146,86.152c-24.64,24.637-29.974,61.401-15.983,91.284   l-31.524,31.524c-29.882-13.992-66.64-8.663-91.284,15.984l-86.146,86.142c-31.445,31.441-31.445,82.61,0,114.057   c31.445,31.447,82.616,31.442,114.061,0.005l86.141-86.146c25.71-25.713,30.389-64.592,14.076-95.109l29.609-29.613   c30.518,16.312,69.407,11.633,95.11-14.072l86.151-86.14C480.175,106.213,480.175,55.036,448.728,23.585z M197.474,336.262   l-86.147,86.15c-16.926,16.927-44.479,16.927-61.412-0.004c-16.932-16.938-16.932-44.487-0.014-61.417l86.146-86.147   c9.595-9.593,22.589-13.735,35.128-12.466l-22.997,22.993c-9.892,9.901-9.892,26.004,0,35.896c9.903,9.894,26.007,9.894,35.896,0   l25.056-25.062C212.187,310.204,208.328,325.416,197.474,336.262z M422.404,111.33l-86.146,86.146   c-10.861,10.859-26.056,14.72-40.049,11.659l15.492-15.487c9.894-9.896,9.894-26-0.005-35.89c-9.901-9.894-25.997-9.894-35.887,0   l-13.424,13.419c-1.274-12.534,2.873-25.532,12.462-35.122l86.146-86.146c16.923-16.925,44.479-16.925,61.418,0.008   C439.343,66.85,439.343,94.396,422.404,111.33z" fill="#91DC5A"/>
</g>
<g>
</g>
<g>
</g>
<g>
</g>
<g>
</g>
<g>
</g>
<g>
</g>
<g>
</g>
<g>
</g>
<g>
</g>
<g>
</g>
<g>
</g>
<g>
</g>
<g>
</g>
<g>
</g>
<g>
</g>
</svg>
