<?xml version="1.0" encoding="UTF-8"?>
<svg width="61px" height="59px" viewBox="0 0 61 59" version="1.1" xmlns="http://www.w3.org/2000/svg" xmlns:xlink="http://www.w3.org/1999/xlink">
    <!-- Generator: sketchtool 40.3 (33839) - http://www.bohemiancoding.com/sketch -->
    <title>C8A0DBB1-AC48-4299-B907-7451FABB2515</title>
    <desc>Created with sketchtool.</desc>
    <defs>
        <path d="M44.1270444,26.3662526 C43.4722457,25.4543891 43.1954949,24.3103072 43.3931195,23.1580068 L43.7870307,20.8610512 L42.1184983,19.2345666 C42.0930785,19.2099113 42.0701433,19.1835358 42.0454881,19.1583072 C29.2765324,29.8103481 27.8241638,46.8851877 27.9633038,55.2676041 C27.9684642,55.5730239 28.2029761,55.8255017 28.5072491,55.8537884 C28.8113311,55.8820751 29.0880819,55.6769966 29.1496246,55.3776928 C32.6718908,38.2233447 39.333215,30.1155768 44.1270444,26.3662526 L44.1270444,26.3662526 Z" id="path-1"></path>
        <mask id="mask-2" maskContentUnits="userSpaceOnUse" maskUnits="objectBoundingBox" x="-1" y="-1" width="18.1721811" height="38.6980846">
            <rect x="26.9548633" y="18.1583072" width="18.1721811" height="38.6980846" fill="white"></rect>
            <use xlink:href="#path-1" fill="black"></use>
        </mask>
        <path d="M19.0860614,14.9112901 L15.2327645,15.773843 L13.7587986,19.4371604 C13.732041,19.5036724 13.701843,19.5680819 13.6720273,19.6326826 C19.6860068,28.1406689 22.8181843,45.5111809 24.0702526,54.2611331 C24.099686,54.4664027 24.2825939,54.6139522 24.4893925,54.6 C24.6961911,54.5860478 24.8573106,54.4149898 24.8590307,54.2078089 C25.0113584,35.3348532 22.1242048,22.7424983 19.2102935,14.8791809 C19.1688191,14.8895017 19.1281092,14.9019249 19.0860614,14.9112901 L19.0860614,14.9112901 Z" id="path-3"></path>
        <mask id="mask-4" maskContentUnits="userSpaceOnUse" maskUnits="objectBoundingBox" x="-1" y="-1" width="13.1927773" height="41.7217317">
            <rect x="12.6720273" y="13.8791809" width="13.1927773" height="41.7217317" fill="white"></rect>
            <use xlink:href="#path-3" fill="black"></use>
        </mask>
        <path d="M45.438744,45.4697065 L44.8926962,44.7185802 C44.4508123,44.1107986 44.1874403,43.4187304 44.1027713,42.7079317 C39.8995222,43.8288874 33.5766826,46.6973106 31.5564778,53.9524642 C31.4473447,54.344273 31.6373242,54.7576792 32.0056246,54.9300751 C32.374116,55.102471 32.8133242,54.9835904 33.0442048,54.6487372 C35.2486553,51.4517679 39.2112765,47.2299795 45.120901,46.3727782 C45.1241502,46.3636041 45.1264437,46.3542389 45.1296928,46.3448737 L45.438744,45.4697065 L45.438744,45.4697065 Z" id="path-5"></path>
        <mask id="mask-6" maskContentUnits="userSpaceOnUse" maskUnits="objectBoundingBox" x="-1" y="-1" width="15.9129068" height="14.3007425">
            <rect x="30.5258373" y="41.7079317" width="15.9129068" height="14.3007425" fill="white"></rect>
            <use xlink:href="#path-5" fill="black"></use>
        </mask>
        <path d="M15.3816519,38.1430717 C14.9972969,38.6807099 14.4860341,39.1325324 13.8709898,39.4524778 L13.0474266,39.8807918 L12.9333242,40.8020205 C12.8989215,41.0795358 12.8369966,41.3480683 12.7530922,41.6066621 C16.2822389,45.5929829 18.8828942,51.0687509 20.4545256,55.0004096 C20.5598362,55.2639727 20.8474812,55.405215 21.1207918,55.3283823 C21.3939113,55.2513584 21.5653515,54.9809147 21.5177611,54.7009147 C20.1261706,46.4838225 17.6921775,41.3377474 15.3816519,38.1430717 L15.3816519,38.1430717 Z" id="path-7"></path>
        <mask id="mask-8" maskContentUnits="userSpaceOnUse" maskUnits="objectBoundingBox" x="-1" y="-1" width="10.7725816" height="19.2061694">
            <rect x="11.7530922" y="37.1430717" width="10.7725816" height="19.2061694" fill="white"></rect>
            <use xlink:href="#path-7" fill="black"></use>
        </mask>
        <path d="M47.8943345,19.5266075 L47.1606007,23.8042048 C47.1313584,23.9743072 47.2013106,24.1463208 47.3410239,24.2478089 C47.419959,24.3051468 47.5136109,24.3343891 47.6076451,24.3343891 C47.6798908,24.3343891 47.7523276,24.3171877 47.8186485,24.2822116 L51.6602867,22.2625802 L55.5017338,24.2822116 C55.5680546,24.3171877 55.6404915,24.3343891 55.7127372,24.3343891 C55.8067713,24.3343891 55.9004232,24.3051468 55.9793584,24.2478089 C56.1190717,24.1463208 56.1890239,23.9743072 56.1597816,23.8042048 L55.4260478,19.5266075 L58.5339522,16.4970648 C58.6576109,16.3764642 58.7021433,16.1962321 58.6488191,16.0320546 C58.5954949,15.8678771 58.4534881,15.7482321 58.2826212,15.7233857 L53.9876314,15.0993584 L52.0668123,11.2074539 C51.9903618,11.0526416 51.8326826,10.9545939 51.6600956,10.9545939 C51.4875085,10.9545939 51.3298294,11.0526416 51.2533788,11.2074539 L49.3325597,15.0993584 L45.03757,15.7233857 C44.8667031,15.7482321 44.7246962,15.8678771 44.671372,16.0320546 C44.6180478,16.1962321 44.6625802,16.3764642 44.7860478,16.4970648 L47.8943345,19.5266075 L47.8943345,19.5266075 Z" id="path-9"></path>
        <mask id="mask-10" maskContentUnits="userSpaceOnUse" maskUnits="objectBoundingBox" x="-1" y="-1" width="16.0218266" height="15.3797952">
            <rect x="43.6491802" y="9.95459386" width="16.0218266" height="15.3797952" fill="white"></rect>
            <use xlink:href="#path-9" fill="black"></use>
        </mask>
        <path d="M18.2512218,11.1810785 C18.4197952,11.1434266 18.5522457,11.0132696 18.5929556,10.8454608 C18.6336655,10.6776519 18.5757543,10.5014334 18.4433038,10.3905802 L13.8734744,6.56709898 L14.4325188,0.635112628 C14.4487645,0.463290102 14.3658157,0.297010239 14.2190307,0.206416382 C14.1460205,0.161501706 14.0634539,0.138948805 13.9810785,0.138948805 C13.8973652,0.138948805 13.813843,0.162075085 13.7402594,0.208136519 L8.6916587,3.37280546 L3.2225802,1.00819113 C3.16466894,0.983153584 3.10350853,0.970921502 3.04273038,0.970921502 C2.93703754,0.970921502 2.83249147,1.00780887 2.74896928,1.07871672 C2.61728328,1.1905256 2.5607099,1.36731741 2.60275768,1.53474403 L4.05245051,7.31402048 L0.113337884,11.7844642 C-0.000764505119,11.9140478 -0.0315358362,12.0971468 0.0342116041,12.2567372 C0.0999590444,12.4165188 0.250566553,12.5250785 0.422771331,12.5367372 L6.36718089,12.9440273 L9.40169283,18.0717543 C9.48368601,18.2103208 9.63257338,18.2944164 9.7919727,18.2944164 C9.80344027,18.2944164 9.81490785,18.2940341 9.82656655,18.2930785 C9.99877133,18.2800819 10.1484232,18.1703754 10.2130239,18.0102116 L12.4371604,12.4826485 L18.2512218,11.1810785 L18.2512218,11.1810785 Z" id="path-11"></path>
        <mask id="mask-12" maskContentUnits="userSpaceOnUse" maskUnits="objectBoundingBox" x="-1" y="-1" width="20.6056976" height="20.1554676">
            <rect x="-0.99991831" y="-0.861051195" width="20.6056976" height="20.1554676" fill="white"></rect>
            <use xlink:href="#path-11" fill="black"></use>
        </mask>
        <path d="M57.7681092,43.6742662 C57.7432628,43.5033993 57.6234266,43.3615836 57.4592491,43.3082594 L54.6649829,42.4013652 L53.828041,39.5853106 C53.7789215,39.4197952 53.6399727,39.2965188 53.4698703,39.2674676 C53.4442594,39.2630717 53.4186485,39.2609693 53.3932287,39.2609693 C53.2495017,39.2609693 53.1124642,39.3293925 53.0262662,39.4480819 L51.3002048,41.8255017 L48.3633584,41.7513447 C48.3595358,41.7513447 48.3557133,41.7511536 48.3518908,41.7511536 C48.1836997,41.7511536 48.0288874,41.8444232 47.9505256,41.9936928 C47.8702526,42.1465939 47.8836314,42.3317952 47.9851195,42.4713174 L49.7127099,44.8475904 L48.7345256,47.6179659 C48.6769966,47.7808055 48.716942,47.9619932 48.8375427,48.0856519 C48.924314,48.1745256 49.0418567,48.2224983 49.1622662,48.2224983 C49.2090922,48.2224983 49.2564915,48.2152355 49.3025529,48.2003276 L52.0964369,47.2915222 L54.428942,49.0777884 C54.5095973,49.1395222 54.6068805,49.1712491 54.7047372,49.1712491 C54.7731604,49.1712491 54.8417747,49.1557679 54.9056109,49.1244232 C55.0604232,49.0479727 55.158471,48.8902935 55.1582799,48.7175154 L55.1573242,45.7797133 L57.5769829,44.1134744 C57.7187986,44.0154266 57.7929556,43.8451331 57.7681092,43.6742662 L57.7681092,43.6742662 Z" id="path-13"></path>
        <mask id="mask-14" maskContentUnits="userSpaceOnUse" maskUnits="objectBoundingBox" x="-1" y="-1" width="11.8743731" height="11.9102799">
            <rect x="46.8984767" y="38.2609693" width="11.8743731" height="11.9102799" fill="white"></rect>
            <use xlink:href="#path-13" fill="black"></use>
        </mask>
        <path d="M12.3515358,35.649256 C12.3479044,35.4766689 12.2466075,35.3210922 12.0900751,35.2478908 L9.42864164,34.0036587 L8.94490102,31.1059932 C8.91642321,30.9356997 8.79391126,30.7963686 8.62858703,30.7464846 C8.58539249,30.7334881 8.54124232,30.7271809 8.49766553,30.7271809 C8.37400683,30.7271809 8.25321502,30.7778294 8.16625256,30.871099 L6.16057338,33.0178294 L3.25507167,32.5824437 C3.23251877,32.5790034 3.210157,32.5774744 3.18779522,32.5774744 C3.04062799,32.5774744 2.90091468,32.6491468 2.81548123,32.7722321 C2.71686007,32.9140478 2.70749488,33.0994403 2.79101706,33.2506212 L4.21280546,35.8216519 L2.90091468,38.4504027 C2.82389078,38.6048328 2.84109215,38.7896519 2.9454471,38.9272628 C3.03221843,39.0415563 3.16638908,39.1065392 3.30667577,39.1065392 C3.33534471,39.1065392 3.36420478,39.1038635 3.39287372,39.0983208 L6.27735154,38.5406143 L8.37209556,40.6005734 C8.45829352,40.6854334 8.57316041,40.7307304 8.69032082,40.7307304 C8.7403959,40.7307304 8.79066212,40.7225119 8.83939932,40.7055017 C9.00243003,40.6487372 9.11901706,40.5042457 9.14023208,40.3329966 L9.50126962,37.4173652 L12.1072765,36.0613242 C12.2603686,35.9816246 12.3551672,35.8220341 12.3515358,35.649256 Z" id="path-15"></path>
        <mask id="mask-16" maskContentUnits="userSpaceOnUse" maskUnits="objectBoundingBox" x="-1" y="-1" width="11.6172799" height="12.0035495">
            <rect x="1.73435671" y="29.7271809" width="11.6172799" height="12.0035495" fill="white"></rect>
            <use xlink:href="#path-15" fill="black"></use>
        </mask>
        <path d="M31.3875222,11.4723549 L31.0348942,10.6136246 L30.1274266,10.4173379 C29.449884,10.270744 28.8378976,9.96952901 28.3256792,9.55230034 C26.863372,13.4417201 25.8395085,19.457802 26.916314,28.5066758 C26.9742253,28.9936655 27.6846416,28.9879317 27.7308942,28.4997952 C28.1290102,24.3022799 29.1549761,17.5150034 31.7743618,12.2024573 C31.6247099,11.9748259 31.4939795,11.7315222 31.3875222,11.4723549 L31.3875222,11.4723549 Z" id="path-17"></path>
        <mask id="mask-18" maskContentUnits="userSpaceOnUse" maskUnits="objectBoundingBox" x="-1" y="-1" width="7.30541125" height="21.3166228">
            <rect x="25.4689505" y="8.55230034" width="7.30541125" height="21.3166228" fill="white"></rect>
            <use xlink:href="#path-17" fill="black"></use>
        </mask>
        <path d="M32.681256,1.06801365 L32.977884,3.99090785 L30.7382662,5.89223208 C30.6065802,6.00404096 30.5498157,6.18064164 30.5918635,6.34825939 C30.6337201,6.51568601 30.7671263,6.64488737 30.9358908,6.68139249 L33.807372,7.3025529 L34.9235495,10.0201775 C34.9891058,10.179959 35.1397133,10.2885188 35.3119181,10.3003686 C35.32243,10.3011331 35.3327509,10.3015154 35.3430717,10.3015154 C35.5036177,10.3015154 35.6534608,10.216273 35.7350717,10.0761775 L37.2132423,7.53725597 L40.1428259,7.31554949 C40.3150307,7.3025529 40.4648737,7.19284642 40.5292833,7.03268259 C40.5936928,6.87251877 40.5617747,6.68961092 40.4467167,6.56098294 L38.4888191,4.37067577 L39.1831809,1.51601365 C39.2240819,1.34820478 39.1659795,1.17179522 39.033529,1.06094198 C38.9503891,0.991372014 38.8467986,0.95505802 38.7422526,0.95505802 C38.6803276,0.95505802 38.6180205,0.967672355 38.5593447,0.993665529 L35.8711536,2.17883959 L33.3706485,0.636259386 C33.2976382,0.591153584 33.2150717,0.568791809 33.1325051,0.568791809 C33.0489829,0.568791809 32.9652696,0.591918089 32.891686,0.637979522 C32.7454744,0.72952901 32.6638635,0.896191126 32.681256,1.06801365 L32.681256,1.06801365 Z" id="path-19"></path>
        <mask id="mask-20" maskContentUnits="userSpaceOnUse" maskUnits="objectBoundingBox" x="-1" y="-1" width="11.9838899" height="11.7327235">
            <rect x="29.5782045" y="-0.431208191" width="11.9838899" height="11.7327235" fill="white"></rect>
            <use xlink:href="#path-19" fill="black"></use>
        </mask>
    </defs>
    <g id="Page-1" stroke="none" stroke-width="1" fill="none" fill-rule="evenodd">
        <g id="VAS-landing-page" transform="translate(-404.000000, -1818.000000)">
            <g id="score" transform="translate(405.000000, 1819.583926)">
                <g id="Shape">
                    <use fill="#50B748" fill-rule="evenodd" xlink:href="#path-1"></use>
                    <use stroke="#FFFFFF" mask="url(#mask-2)" stroke-width="2" xlink:href="#path-1"></use>
                </g>
                <g id="Shape">
                    <use fill="#50B748" fill-rule="evenodd" xlink:href="#path-3"></use>
                    <use stroke="#FFFFFF" mask="url(#mask-4)" stroke-width="2" xlink:href="#path-3"></use>
                </g>
                <g id="Shape">
                    <use fill="#50B748" fill-rule="evenodd" xlink:href="#path-5"></use>
                    <use stroke="#FFFFFF" mask="url(#mask-6)" stroke-width="2" xlink:href="#path-5"></use>
                </g>
                <g id="Shape">
                    <use fill="#50B748" fill-rule="evenodd" xlink:href="#path-7"></use>
                    <use stroke="#FFFFFF" mask="url(#mask-8)" stroke-width="2" xlink:href="#path-7"></use>
                </g>
                <g id="Shape">
                    <use fill="#ED7161" fill-rule="evenodd" xlink:href="#path-9"></use>
                    <use stroke="#FFFFFF" mask="url(#mask-10)" stroke-width="2" xlink:href="#path-9"></use>
                </g>
                <g id="Shape">
                    <use fill="#ED7161" fill-rule="evenodd" xlink:href="#path-11"></use>
                    <use stroke="#FFFFFF" mask="url(#mask-12)" stroke-width="2" xlink:href="#path-11"></use>
                </g>
                <g id="Shape">
                    <use fill="#ED7161" fill-rule="evenodd" xlink:href="#path-13"></use>
                    <use stroke="#FFFFFF" mask="url(#mask-14)" stroke-width="2" xlink:href="#path-13"></use>
                </g>
                <g id="Shape">
                    <use fill="#ED7161" fill-rule="evenodd" xlink:href="#path-15"></use>
                    <use stroke="#FFFFFF" mask="url(#mask-16)" stroke-width="2" xlink:href="#path-15"></use>
                </g>
                <g id="Shape">
                    <use fill="#50B748" fill-rule="evenodd" xlink:href="#path-17"></use>
                    <use stroke="#FFFFFF" mask="url(#mask-18)" stroke-width="2" xlink:href="#path-17"></use>
                </g>
                <g id="Shape">
                    <use fill="#ED7161" fill-rule="evenodd" xlink:href="#path-19"></use>
                    <use stroke="#FFFFFF" mask="url(#mask-20)" stroke-width="2" xlink:href="#path-19"></use>
                </g>
            </g>
        </g>
    </g>
</svg>