<?xml version="1.0" encoding="utf-8"?>
<!-- Generator: Adobe Illustrator 16.0.0, SVG Export Plug-In . SVG Version: 6.00 Build 0)  -->
<!DOCTYPE svg PUBLIC "-//W3C//DTD SVG 1.1//EN" "http://www.w3.org/Graphics/SVG/1.1/DTD/svg11.dtd">
<svg version="1.1" id="Layer_1" xmlns="http://www.w3.org/2000/svg" xmlns:xlink="http://www.w3.org/1999/xlink" x="0px" y="0px"
	 width="612px" height="237.944px" viewBox="0 277.028 612 237.944" enable-background="new 0 277.028 612 237.944"
	 xml:space="preserve">
<title>yaal-web-logo</title>
<g>
	<path fill="#FFFFFF" d="M410.04,334.915c2.029-9.348,7.232-17.705,14.725-23.652c7.36-6.477,16.295-10.904,25.906-12.838
		c16.877-2.721,34.096,2.126,47.074,13.252c9.909,8.456,16.51,20.142,18.636,32.993c0,0,2.715-0.598,2.715-0.736
		c-2.913-16.923-13.404-31.585-28.482-39.803c-7.371-4.06-15.534-6.478-23.928-7.086c-7.66-0.425-15.334,0.558-22.641,2.898
		c-16.474,4.878-33.499,17.946-36.812,35.662c0-0.368,2.622-0.322,2.715-0.736"/>
	<path fill="#FFFFFF" d="M403.598,322.951l-1.426,6.626l0.414-1.38l0.552-1.564c0.368-1.012,0.828-2.025,1.288-2.991
		c1.047-2.158,2.278-4.221,3.683-6.166c2.788-3.847,6.067-7.312,9.755-10.308c7.355-6.05,15.809-10.627,24.895-13.482
		c16.915-5.222,35.167-3.976,51.215,3.497c18.734,8.257,32.255,25.145,36.215,45.233c0.056-0.471,0.163-0.934,0.321-1.38
		l0.966-3.359l0.736-3.313c0.149-0.447,0.242-0.911,0.276-1.38c-6.306-35.109-43.255-56.046-77.075-51.169
		c-12.579,2.003-24.422,7.235-34.374,15.185c-5.094,3.958-9.428,8.806-12.792,14.311c-3.416,6.508-5.674,13.562-6.672,20.845
		C401.987,329.945,403.046,325.942,403.598,322.951"/>
	<path fill="#FFFFFF" d="M410.822,334.777c-0.021-0.446-0.131-0.884-0.322-1.288l-2.715,0.736
		c7.755,7.698,13.998,16.782,18.406,26.781c2.393,4.924,4.602,9.985,6.855,15.001c2.062,5.481,4.731,10.714,7.96,15.599
		c0,0.276,2.531-1.012,2.715-0.736c-3.113-4.713-5.69-9.76-7.685-15.047c-2.254-5.016-4.602-10.031-6.811-14.955
		c-4.358-10.189-10.604-19.462-18.405-27.333c-0.23-0.23-2.577,0.966-2.715,0.736c0.189,0.404,0.301,0.842,0.321,1.288
		c0,0,2.715-0.552,2.715-0.736"/>
	<path fill="#FFFFFF" d="M439.95,391.974c1.578-0.115,3.131-0.472,4.602-1.058c1.439-0.3,2.822-0.829,4.096-1.565
		c2.89-1.992,5.397-4.485,7.407-7.362c2.033-2.13,3.155-4.97,3.129-7.915c-0.705-1.059-1.716-1.877-2.897-2.347
		c-1.88-1.308-3.323-3.152-4.143-5.292c-1.287-4.096,2.163-8.881,3.591-12.563c1.515-3.933,1.192-8.337-0.875-12.01
		c-3.451-6.442-10.905-9.663-13.806-16.657l-5.43,1.472c1.089,0.965,1.899,2.205,2.347,3.589c0,0,5.385-1.564,5.432-1.473
		c-0.45-1.383-1.261-2.622-2.349-3.589c-0.46-0.368-5.291,1.794-5.43,1.472c2.485,6.258,8.421,9.617,12.517,14.679
		c2.179,2.874,3.256,6.432,3.037,10.032c-0.936,4.016-2.342,7.908-4.188,11.596c-1.206,4.082,0.544,8.459,4.232,10.583
		c1.016,0.407,1.881,1.113,2.484,2.024c0.195,1.225,0.003,2.48-0.552,3.589c-1.312,2.78-3.084,5.316-5.246,7.5
		c-1.092,1.195-2.277,2.303-3.543,3.313c-0.583,0.458-1.198,0.873-1.841,1.242l-0.828,0.414c4.97-2.208,5.476-1.012,3.682-1.104
		C443.585,390.455,441.698,391.974,439.95,391.974"/>
	<path fill="#FFFFFF" d="M456.699,346.925c4.019,1.268,7.238,4.301,8.743,8.237c2.534,4.567,3.909,9.687,4.003,14.909
		c-0.271,5.913-1.449,11.749-3.497,17.302c-2.055,5.535-2.28,11.583-0.646,17.256c0.276,0.782,3.313,0.646,2.991-0.276
		c-1.568-5.826-1.229-12.002,0.967-17.624c2.049-5.654,3.139-11.611,3.222-17.624c-0.248-5.077-1.683-10.025-4.188-14.449
		c-1.831-3.925-5.139-6.968-9.203-8.467c-0.497-0.134-1.005-0.227-1.519-0.276c-0.666-0.18-1.379-0.044-1.934,0.368
		c-0.367,0.506,0.828,0.782,1.06,0.782"/>
	<path fill="#FFFFFF" d="M496.641,408.539c-4.375,1.011-8.82,1.688-13.299,2.023c-5.335,0.203-10.678-0.059-15.967-0.781
		c-7.685-0.828-15.093-2.623-22.686-4.049c-5.141-1.172-10.534-0.082-14.817,2.99c-1.777,1.465-3.328,3.188-4.602,5.107
		c-1.767,1.819-3.021,4.074-3.636,6.534c0.018,1.144,0.141,2.284,0.368,3.404c0.214,1.292,0.569,2.559,1.059,3.772
		c1.286,2.679,2.379,5.447,3.268,8.283c0.07,3.663,0.348,7.318,0.828,10.951c0.683,1.479,2.146,2.441,3.772,2.484
		c2.062,0.231,3.932,1.316,5.154,2.991c2.53,3.497,5.476,6.626,8.19,9.938c2.715,3.313,5.566,7.18,8.145,10.906
		c0.276,0.414,3.728-1.427,4.003-1.059c-3.405-4.924-7.04-9.663-10.905-14.219c-1.841-2.21-3.772-4.279-5.43-6.626
		c-1.765-1.979-4.216-3.214-6.855-3.451c-1.893-0.983-2.975-3.038-2.716-5.154c-0.367-2.853,0-5.752-0.367-8.559
		c-0.837-2.626-1.883-5.182-3.13-7.64c-0.992-2.452-1.464-5.085-1.381-7.729c0.233-1.113,0.758-2.146,1.52-2.99l2.07-2.991
		c1.409-2.063,3.134-3.896,5.107-5.43c0.934-0.61,1.938-1.104,2.991-1.473c-3.451,1.427-3.175,0.645-1.657,0.552
		c1.011-0.097,2.027-0.097,3.037,0c6.902,0.967,13.805,2.898,20.569,3.911c6.217,0.901,12.49,1.349,18.772,1.335
		c4.985-0.181,9.938-0.891,14.771-2.117c1.195-0.275,2.897-0.828,3.818-1.059"/>
	<path fill="#FFFFFF" d="M454.307,476.779c2.671-0.086,5.175-1.328,6.856-3.405c1.35-2.985,1.95-6.255,1.748-9.524
		c0-6.627-1.242-13.113-1.427-19.74c0,0-2.762,0.735-2.99,0.781l0,0l-2.117,0.368c-1.072,0.083-2.148,0.083-3.221,0
		c-2.096-0.046-4.147-0.599-5.982-1.609c-2.895-1.923-5.063-4.758-6.166-8.054c-1.443-3.301-2.555-6.737-3.313-10.261
		c-0.96-2.774-0.861-5.807,0.274-8.513l-4.003,1.058c-0.46,1.06,10.309,6.212,11.229,6.673c4.324,2.254,8.789,4.279,12.977,6.672
		c4.188,2.394,8.236,5.799,12.608,8.282c5.931,3.515,12.708,5.343,19.602,5.292c4.71-0.287,9.356-1.231,13.805-2.807
		c6.192-2.126,11.957-5.335,17.025-9.479c-0.966,0.782-2.99,0.276-4.003,1.06c-4.354,3.484-9.17,6.35-14.311,8.513l-2.07,0.736
		c-0.6,0-2.485,0.645,0.229,0c-1.104,0.275-2.255,0.46-3.404,0.599c-1.998,0.259-4.017,0.336-6.027,0.229
		c-6.691-0.511-13.147-2.693-18.774-6.351c-3.818-2.347-7.271-5.384-11.272-7.501c-4.832-2.53-9.756-4.924-14.587-7.5
		c-0.736-0.414-9.525-4.602-9.203-5.567c-0.637,0.246-1.302,0.417-1.979,0.507c-0.687,0.069-1.354,0.257-1.979,0.552
		c-1.112,2.967-1.112,6.236,0,9.203c0.923,3.999,2.313,7.876,4.141,11.55c1.692,3.784,5.13,6.501,9.203,7.271
		c4.479,0.422,8.993-0.177,13.207-1.749l-2.991,0.781c0,5.614,1.196,11.183,1.38,16.796c0.166,3.08-0.034,6.171-0.598,9.203
		c-0.234,1.179-0.653,2.313-1.242,3.358c-1.195,2.071-4.602,2.347,1.104,1.059c-1.197,0.276-2.899,0.828-3.819,1.06"/>
	<path fill="#FFFFFF" d="M426.053,462.745c-2.068,2.732-3.757,5.736-5.016,8.927c-0.397,1.514,0.001,3.126,1.059,4.279
		c1.378,0.977,2.461,2.313,3.129,3.865c0.457,2.059,0.734,4.151,0.829,6.258l0.874,7.408c0.717,4.858,1.057,9.768,1.013,14.68
		c0-0.368,3.958-0.646,4.004-1.06c0.045-4.617-0.264-9.232-0.921-13.805c-0.553-4.602-0.967-9.203-1.656-13.805
		c-0.283-1.566-1.198-2.947-2.53-3.819c-1.458-1.044-2.177-2.84-1.841-4.602c1.081-3.457,2.867-6.653,5.245-9.388
		c-0.633,0.259-1.299,0.429-1.979,0.507c-0.685,0.076-1.353,0.264-1.979,0.553"/>
	<path fill="#FFFFFF" d="M427.618,512.303c2.479,0.204,4.968-0.24,7.224-1.288c3.213-1.856,5.818-4.605,7.501-7.915
		c2.014-3.38,3.841-6.866,5.477-10.444c0.874-1.748,1.749-3.497,2.715-5.199l0.645-1.104l-1.195-0.367l-1.104-0.322l-4.004,1.059
		l2.301,0.69c1.104,0.321,2.899-1.427,4.004-1.06c-5.749-1.051-10.529-5.028-12.607-10.49c-0.611-3.533-0.375-7.16,0.689-10.584
		c0.688-3.551,1.865-6.987,3.497-10.216c-0.634,0.259-1.3,0.429-1.979,0.507c-0.687,0.072-1.354,0.26-1.979,0.553
		c-1.489,3.003-2.572,6.189-3.222,9.479c-1.004,3.433-1.332,7.026-0.966,10.584c1.012,6.305,7.271,9.202,12.746,11.136l4.003-1.059
		l-2.302-0.689c-1.149-0.322-2.897,1.427-4.003,1.059l2.302,0.689c-0.836,1.262-1.575,2.584-2.209,3.958
		c-1.428,2.715-2.669,5.476-4.097,8.189c-1.307,2.721-2.846,5.322-4.601,7.776c-0.85,1.146-1.804,2.21-2.854,3.175
		c-0.574,0.504-1.208,0.938-1.887,1.289c2.024-0.368,2.439-0.507,1.242-0.414h-1.196c-1.242,0-2.761,1.288-4.003,1.058"/>
	<path fill="#FFFFFF" d="M426.882,344.9c2.042,0.81,3.847,2.124,5.245,3.819c-2.348-2.787-2.767-6.721-1.059-9.939
		c-2.316,1.204-3.887,3.48-4.188,6.074"/>
	<path fill="#FFFFFF" d="M449.383,378.445c-1.381,0-2.393,3.911-4.096,1.61c0.194-0.816,0.607-1.564,1.197-2.163
		C438.386,378.583,447.681,386.268,449.383,378.445"/>
	<path fill="#FFFFFF" d="M429.688,462.606c0.646-5.199,4.05-9.617,3.729-14.954c0,0.229-4.004,0.734-4.004,1.058
		c0.322,5.338-3.083,9.756-3.728,14.955C425.686,463.159,429.597,463.159,429.688,462.606"/>
	<path fill="#FFFFFF" d="M448.324,443.372c2.477-5.304,7.328-9.113,13.067-10.261l-3.864,1.012
		c-5.785,1.152-10.685,4.976-13.206,10.308c0.639-0.24,1.303-0.411,1.979-0.506c0.684-0.089,1.35-0.273,1.979-0.553"/>
	<path fill="#FFFFFF" d="M554.711,302.014c-0.599-3.283-0.182-6.67,1.196-9.709c0.702-1.458,1.804-2.686,3.176-3.543
		c1.397-0.811,2.985-1.239,4.602-1.242c3.199-0.064,6.282,1.203,8.514,3.497c2.248,2.281,3.838,5.126,4.602,8.237
		c0.382,1.503,0.567,3.05,0.552,4.602c0,0.414,0,0.782,0,1.15c0,0.368,0,0.828,0,1.196c-0.128,0.791-0.297,1.574-0.506,2.347
		c-0.859,3.103-2.229,6.042-4.05,8.697c-3.79,5.347-8.457,10.015-13.805,13.805c-5.4,3.967-11.162,7.418-17.209,10.307
		c-2.991,1.473-5.982,2.853-9.203,4.188s-6.166,2.761-9.203,4.326c-6.166,3.032-11.781,7.076-16.611,11.964
		c-2.402,2.514-4.446,5.347-6.073,8.42c-1.601,3.095-2.718,6.416-3.313,9.847l0,0c-0.367,3.778-0.197,7.59,0.506,11.32
		c0.686,3.721,1.959,7.31,3.773,10.629c1.823,3.319,4.117,6.356,6.81,9.021c2.711,2.666,5.814,4.899,9.203,6.626
		c-1.622-0.959-3.161-2.053-4.602-3.269c-1.397-1.188-2.72-2.465-3.957-3.818c-2.475-2.757-4.535-5.855-6.12-9.202
		c-1.563-3.261-2.632-6.734-3.175-10.308c-0.48-3.573-0.48-7.195,0-10.768l0,0c0.622-3.221,1.738-6.325,3.313-9.203
		c1.603-2.821,3.566-5.42,5.844-7.73c4.702-4.575,10.109-8.366,16.014-11.228c2.944-1.519,5.937-2.853,9.203-4.188
		c3.268-1.334,6.166-2.669,9.203-4.233c6.101-2.996,11.907-6.555,17.348-10.629c5.544-4.062,10.354-9.042,14.219-14.725
		c1.914-2.932,3.314-6.168,4.143-9.571c0.197-0.851,0.352-1.71,0.46-2.577c0-0.46,0-0.828,0-1.288s0-0.875,0-1.334
		c-0.094-5.365-2.33-10.469-6.212-14.173c-1.34-1.212-2.902-2.15-4.603-2.761c-1.63-0.538-3.354-0.727-5.062-0.552
		c-1.772,0.113-3.484,0.684-4.971,1.657c-1.448,0.995-2.583,2.384-3.268,4.003c-1.251,3.182-1.46,6.678-0.598,9.985"/>
	<path fill="#FFFFFF" d="M594.008,296.493c0.621,6.379-0.083,12.818-2.07,18.912c-1.995,6.11-4.964,11.859-8.788,17.025
		c-3.893,5.148-8.337,9.854-13.253,14.035c-4.804,4.347-9.96,8.287-15.414,11.78c5.524-3.393,10.759-7.24,15.645-11.504
		c5.096-4.079,9.727-8.708,13.805-13.804c3.972-5.172,7.078-10.953,9.203-17.118c2.152-6.218,2.998-12.813,2.484-19.373
		L594.008,296.493z"/>
	<path fill="#FFFFFF" d="M522.271,352.217l19.603-9.479c0,0,25.032,26.182,23.283,60.373l-4.603,1.609l-0.966,1.381l0.874,2.576
		l1.15,3.497l-1.196,2.577l-2.438,1.749l-3.176-0.276l-1.059-2.163l2.347-2.761c0.082-1.271-0.367-2.521-1.242-3.451
		c-0.317-0.419-0.809-0.673-1.335-0.689l-6.166,2.163C547.196,387.648,538.125,366.994,522.271,352.217"/>
	<path fill="#FFFFFF" d="M541.505,351.526c1.907,2.477,1.446,6.03-1.03,7.938c-2.477,1.907-6.029,1.446-7.938-1.03
		c-1.9-2.467-1.45-6.007,1.007-7.92c2.467-1.92,6.023-1.477,7.943,0.989C541.493,351.511,541.499,351.519,541.505,351.526"/>
	<path fill="#FFFFFF" d="M549.373,360.821c1.469,2.76,0.422,6.187-2.338,7.655c-2.759,1.468-6.188,0.422-7.654-2.338
		c-1.469-2.759-0.422-6.187,2.338-7.655c0.005-0.003,0.012-0.006,0.018-0.009C544.493,357.019,547.908,358.068,549.373,360.821"/>
	<path fill="#FFFFFF" d="M555.539,371.359c0.966,2.973-0.662,6.166-3.635,7.131c-2.975,0.965-6.166-0.663-7.131-3.636
		c-0.967-2.972,0.66-6.165,3.634-7.13C551.38,366.759,554.573,368.385,555.539,371.359
		C555.539,371.358,555.539,371.358,555.539,371.359"/>
	<path fill="#FFFFFF" d="M559.773,382.771c0.551,3.077-1.497,6.018-4.574,6.569c-3.076,0.551-6.019-1.497-6.568-4.573
		c-0.552-3.077,1.496-6.018,4.573-6.569c0.058-0.01,0.115-0.02,0.173-0.028C556.401,377.724,559.233,379.761,559.773,382.771"/>
	<path fill="#FFFFFF" d="M561.981,394.827c-0.104,3.125-2.721,5.573-5.845,5.47s-5.572-2.72-5.47-5.844
		c0.104-3.122,2.716-5.57,5.838-5.47c3.124,0.1,5.576,2.713,5.477,5.838C561.981,394.823,561.981,394.825,561.981,394.827"/>
	<path fill="#FFFFFF" d="M552.318,301.232c-0.946-2.007-1.493-4.18-1.61-6.396c-0.133-2.208,0.312-4.412,1.288-6.396
		c1.019-1.943,2.486-3.615,4.279-4.877c1.798-1.267,3.766-2.273,5.845-2.991l0,0c4.103-0.948,8.406-0.461,12.192,1.38
		c1.773,0.973,3.338,2.287,4.603,3.865c1.295,1.636,2.377,3.43,3.221,5.338c1.727,3.816,2.604,7.96,2.577,12.148
		c-0.051,4.178-0.813,8.317-2.255,12.24c-2.966,7.862-7.687,14.945-13.805,20.707c-2.974,2.862-6.175,5.478-9.57,7.823
		c-3.535,2.353-7.19,4.518-10.952,6.488l1.104,1.979c3.73-2.005,7.354-4.201,10.858-6.581c3.548-2.434,6.889-5.158,9.985-8.145
		c6.184-6.032,10.905-13.398,13.805-21.535c1.423-4.082,2.14-8.377,2.117-12.7c0.007-4.437-0.968-8.821-2.854-12.838
		c-0.911-1.965-2.071-3.805-3.45-5.476c-1.425-1.564-3.146-2.831-5.063-3.727c-1.977-1.03-4.132-1.67-6.35-1.887
		c-2.146-0.177-4.307-0.006-6.396,0.506l0,0c-2.101,0.762-4.083,1.815-5.89,3.129c-1.834,1.309-3.318,3.047-4.326,5.062
		c-0.951,2.023-1.363,4.259-1.196,6.488c0.162,2.226,0.757,4.398,1.749,6.396"/>
	<path fill="#FFFFFF" d="M580.802,285.311c3.067,0.491,5.938,1.83,8.283,3.865c2.326,1.976,4.088,4.532,5.107,7.408v0.322h0.367
		c1.476-0.128,2.95,0.245,4.188,1.058c1.15,0.89,2.001,2.11,2.438,3.497c0.502,1.488,0.813,3.035,0.92,4.602
		c0,1.519,0,3.083,0,4.602v1.104l1.15-0.322c0.54-0.164,1.117-0.164,1.657,0c0.455,0.204,0.805,0.587,0.966,1.059
		c0.415,1.291,0.556,2.654,0.414,4.003c-0.102,1.454-0.302,2.899-0.598,4.326c-0.276,1.426-0.646,2.899-1.06,4.279l-0.506,1.749
		h1.886c1.24-0.281,2.473,0.496,2.753,1.735c0.045,0.201,0.063,0.406,0.056,0.611c0.18,1.881,0.039,3.779-0.414,5.614
		c-0.438,1.948-0.99,3.869-1.657,5.751c-0.644,1.887-1.38,3.819-2.208,5.614l-0.782,1.795l1.979,0.46
		c0.444,0.077,0.852,0.304,1.149,0.645c0.268,0.377,0.411,0.827,0.414,1.288c-0.003,1.387-0.269,2.761-0.781,4.049
		c-0.515,1.438-1.13,2.837-1.842,4.188c-0.689,1.38-1.519,2.761-2.347,4.003l-1.887,2.899h3.451l0,0h0.275h0.322
		c0.16,0.099,0.288,0.243,0.368,0.414c0.206,0.675,0.206,1.396,0,2.071c-0.209,0.95-0.519,1.875-0.921,2.761l-0.645,1.38
		l-0.368,0.69v0.368l0,0l0,0l0,0l0,0l0,0c-2.37,3.591-5.149,6.896-8.282,9.847c-3.117,3.17-6.422,6.151-9.895,8.927
		c-3.451,2.669-7.132,5.246-10.768,7.5l-1.564,0.967l0.46,1.933c0.234,0.681,0.344,1.396,0.322,2.117
		c0.036,0.182,0.036,0.369,0,0.552l0,0c-0.295,0.118-0.625,0.118-0.92,0l0,0l0,0l0,0v-0.276l-0.368-0.689
		c-0.343-0.655-0.776-1.26-1.288-1.794c-0.646-0.639-1.435-1.111-2.301-1.381c-0.702-0.218-1.429-0.342-2.163-0.368h-1.013h-0.92
		h-0.599h-0.599l-1.06,0.414c-0.659,0.304-1.277,0.688-1.841,1.149c-0.525,0.439-1.004,0.934-1.426,1.474l-0.599,0.828l-0.276,0.46
		l-0.275,0.553l-0.645,1.381l1.149,1.426l0,0l0.23,0.322l0.414,0.736c0.239,0.464,0.41,0.96,0.506,1.473
		c0.021,0.245,0.021,0.491,0,0.736c0,0,0,0.229,0,0.367l0,0l0,0l0,0l0,0l0,0l0,0v0.368l0,0l0,0l0,0l0,0v0.321l-0.23,0.276
		c-0.422,0.55-1.106,0.831-1.794,0.735c-0.118,0.042-0.249,0.042-0.367,0c0.015,0.092,0.015,0.186,0,0.276
		c0.053,0.211,0.053,0.433,0,0.644c0.027,0.152,0.027,0.31,0,0.461l0,0l0,0l0,0l-0.507,0.229c0.745-0.287,1.432-0.708,2.024-1.242
		c0.7-0.619,1.225-1.413,1.519-2.301c0.134-0.435,0.211-0.882,0.229-1.334c0.017-0.23,0.017-0.461,0-0.69c0,0,0-0.229,0-0.368l0,0
		c0.013-0.152,0.013-0.308,0-0.46l0,0v-0.275v-0.506c-0.157-0.337-0.342-0.66-0.552-0.968c-0.476-0.685-1.086-1.264-1.795-1.701
		c-0.701-0.442-1.482-0.739-2.302-0.875c-0.717-0.104-1.444-0.104-2.161,0h-1.014h-0.506h-0.553l0,0
		c-1.391,0.462-2.694,1.146-3.865,2.024c-1.256,0.954-2.279,2.181-2.991,3.589c-0.703,1.437-1.096,3.004-1.148,4.603
		c-0.061,0.734-0.061,1.474,0,2.209c0,0.368,0,0.735,0,1.058v0.553v0.646l3.221-3.313c-2.695-0.819-5.517-1.146-8.329-0.967
		c-2.857,0.201-5.646,0.984-8.189,2.301c-2.47,1.298-4.708,2.991-6.626,5.017c-0.943,0.982-1.82,2.027-2.623,3.13
		c-0.414,0.552-0.782,1.104-1.15,1.702l-0.552,0.874l-0.553,0.967l2.99-1.381c-1.655-0.536-3.212-1.346-4.602-2.394
		c-1.632-1.116-3.17-2.362-4.602-3.728c-8.471-8.438-14.318-19.145-16.843-30.83c-0.742-3.834-0.896-7.76-0.46-11.642
		c0-0.46,0-0.966,0-1.426v-0.69v-0.736c0-0.92,0.46-1.887,0.736-2.761c0.584-1.854,1.322-3.654,2.209-5.384
		c3.905-6.962,9.313-12.967,15.829-17.578c6.616-4.759,13.674-8.873,21.075-12.286l11.182-5.384
		c3.796-1.792,7.442-3.884,10.905-6.258c3.511-2.368,6.696-5.183,9.479-8.375c2.883-3.199,4.825-7.132,5.614-11.366
		c0.271-2.167-0.013-4.369-0.828-6.396c-0.408-1.02-1.001-1.956-1.749-2.761c-0.749-0.795-1.681-1.396-2.715-1.749
		c-2.067-0.633-4.303-0.418-6.212,0.599c-1.908,0.92-3.355,2.583-4.003,4.602c1.601-3.921,5.965-5.932,9.984-4.602
		c1.811,0.8,3.187,2.344,3.773,4.233c0.639,1.863,0.797,3.857,0.46,5.798c-0.412,1.947-1.143,3.813-2.163,5.521
		c-1.03,1.656-2.232,3.199-3.589,4.602c-2.729,2.929-5.821,5.497-9.203,7.639c-3.443,2.165-7.043,4.072-10.768,5.706l-11.319,5.016
		c-7.724,3.26-15.093,7.299-21.995,12.056c-3.476,2.451-6.725,5.208-9.71,8.237c-3.03,3.088-5.63,6.57-7.729,10.353
		c-1.053,1.927-1.931,3.945-2.622,6.028c-0.322,1.058-0.646,2.117-0.875,3.175v0.782v0.829c0,0.552,0,1.104-0.275,1.61
		c-0.878,4.644-0.987,9.401-0.322,14.081c2.491,12.751,8.741,24.467,17.945,33.637c1.574,1.541,3.267,2.956,5.062,4.232
		c1.915,1.421,4.064,2.496,6.352,3.176l1.979,0.553l0.967-1.934l0.367-0.645l0.461-0.736l0.921-1.472
		c0.678-0.908,1.415-1.77,2.209-2.577c1.53-1.617,3.318-2.97,5.291-4.004c1.919-0.979,4.017-1.56,6.166-1.702
		c2.191-0.118,4.388,0.146,6.487,0.782l4.603,1.288l-1.196-4.602v-0.415c0,0,0-0.46,0-0.688c-0.036-0.444-0.036-0.892,0-1.335
		c0.031-0.83,0.234-1.646,0.599-2.394c0.347-0.703,0.851-1.316,1.473-1.795c0.711-0.537,1.503-0.957,2.348-1.242h0.46h0.414h0.69
		c0.261,0.016,0.499,0.15,0.644,0.368v0.276l0,0l0,0l0,0v-0.276l0,0l-0.414,0.23h-0.275l0,0l0,0l0,0l-0.275,0.229l-0.46,0.554
		c-0.338,0.448-0.574,0.968-0.69,1.519c-0.145,0.589-0.145,1.205,0,1.794c0.131,0.458,0.333,0.894,0.599,1.289
		c0.833,1.151,2.062,1.955,3.45,2.254c1.243,0.271,2.538,0.175,3.729-0.274c1.086-0.42,2.062-1.08,2.853-1.934l0.554-0.599
		l0.46-0.645l0,0l0,0l0,0l0,0v-0.415l0.229-0.734v-0.829c0-0.275,0-0.552,0-0.782c0.042-0.521,0.042-1.044,0-1.564
		c-0.18-1.008-0.506-1.983-0.967-2.897c-0.232-0.445-0.494-0.876-0.782-1.289l-0.46-0.598l-0.229-0.322l-0.322-0.368l0.507,2.807
		l0,0l0,0l0.276-0.413c0.202-0.271,0.434-0.518,0.688-0.736l0.922-0.966h0.367h1.427h0.875h0.32c0.183,0.21,0.337,0.44,0.461,0.689
		l0.368,0.645v0.368l0,0l0.275,0.413c0.62,0.805,1.472,1.397,2.438,1.703c0.802,0.257,1.646,0.352,2.484,0.275
		c0.896-0.072,1.765-0.355,2.531-0.828c0.805-0.506,1.457-1.222,1.887-2.07c0.372-0.747,0.591-1.561,0.644-2.393
		c0.094-1.144,0-2.293-0.275-3.405l-1.012,2.715c3.91-2.483,7.546-5.152,11.09-7.959c3.588-2.858,6.999-5.932,10.215-9.203
		c3.295-3.272,6.198-6.916,8.65-10.859l0,0l0,0l0,0v-0.415l0.414-0.782l0.736-1.656c0.497-1.168,0.867-2.387,1.104-3.635
		c0.082-0.703,0.082-1.414,0-2.117c-0.044-0.834-0.264-1.649-0.645-2.393c-0.428-0.826-1.082-1.513-1.887-1.979
		c-0.378-0.215-0.779-0.385-1.196-0.506h-0.645h-0.736l1.564,2.945c0.921-1.473,1.702-2.899,2.438-4.602
		c0.747-1.488,1.394-3.026,1.933-4.602c0.62-1.755,0.887-3.617,0.782-5.476c-0.089-1.167-0.539-2.277-1.289-3.175
		c-0.803-0.871-1.87-1.454-3.037-1.656l1.15,2.3c0.782-1.979,1.473-3.957,2.117-5.936c0.645-2.022,1.167-4.082,1.563-6.166
		c0.457-2.179,0.534-4.421,0.229-6.626c-0.121-0.621-0.322-1.224-0.598-1.794c-0.297-0.644-0.737-1.211-1.288-1.657
		c-0.581-0.444-1.261-0.744-1.979-0.874c-0.64-0.1-1.292-0.1-1.932,0l1.334,1.61c0.414-1.519,0.689-3.037,0.967-4.602
		c0.255-1.522,0.408-3.059,0.46-4.601c0.101-1.679-0.167-3.359-0.782-4.924c-0.211-0.44-0.491-0.844-0.828-1.196
		c-0.373-0.378-0.831-0.662-1.335-0.829c-0.913-0.292-1.894-0.292-2.807,0l1.15,0.875c-0.051-1.539-0.173-3.074-0.368-4.602
		c-0.211-1.577-0.613-3.122-1.196-4.602c-0.607-1.623-1.701-3.021-3.129-4.003c-1.477-0.896-3.21-1.269-4.924-1.058l0.506,0.322
		c-2.423-5.993-7.934-10.179-14.356-10.906"/>
	<path fill="#FFFFFF" d="M560.739,412.864c-0.839,1.481-2.72,2.003-4.202,1.165c-1.481-0.839-2.003-2.722-1.164-4.202
		c0.542-0.957,1.552-1.553,2.651-1.564C559.999,408.844,561.186,410.855,560.739,412.864"/>
	<path fill="#FFFFFF" d="M499.033,443.051c12.193,26.229,40.677,40.585,68.607,42.195c1.52,0,3.129-1.334,4.603-1.242
		c-27.886-1.656-56.415-15.968-68.608-42.196C503.635,441.532,499.033,443.28,499.033,443.051"/>
	<line fill="#FFFFFF" x1="370.467" y1="277.028" x2="370.467" y2="514.972"/>
	<g>
		<path fill="#FFFFFF" d="M25.906,368.598c-0.034,1.368-0.675,2.649-1.749,3.497c-1.086,0.962-2.508,1.458-3.957,1.38l0,0
			c-1.435-0.016-2.807-0.594-3.819-1.61c-0.996-0.921-1.535-2.234-1.473-3.589l1.197-27.333c0.081-2.051-0.296-4.095-1.104-5.982
			c-0.849-1.845-2.035-3.515-3.497-4.923c-1.466-1.455-3.201-2.611-5.108-3.405c-1.996-0.853-4.134-1.321-6.304-1.38v0.644l0,0
			v0.645l0,0c1.451,0.003,2.841,0.583,3.866,1.61c0.996,0.921,1.534,2.234,1.472,3.589l-1.104,27.333
			c-0.086,2.047,0.275,4.089,1.059,5.982c0.776,1.865,1.918,3.555,3.359,4.97c1.476,1.5,3.226,2.702,5.154,3.543
			c1.996,0.852,4.135,1.321,6.304,1.38l0,0c1.118,0.097,2.241,0.097,3.359,0c0.734-0.106,1.458-0.275,2.163-0.506L25.31,390.18
			c-0.034,1.368-0.675,2.649-1.749,3.497c-1.081,0.971-2.506,1.468-3.957,1.38l0,0v1.519h0.414c1.974,0.01,3.934-0.316,5.798-0.966
			c1.955-0.688,3.765-1.734,5.338-3.083c1.511-1.283,2.761-2.845,3.681-4.602c0.911-1.834,1.413-3.843,1.472-5.89l1.979-55.218
			l-10.906-0.322L25.906,368.598z"/>
		<path fill="#FFFFFF" d="M62.12,376.053L62.12,376.053c2.125,0.084,4.248-0.228,6.258-0.92c1.669-0.632,3.224-1.534,4.602-2.669
			c1.353,1.239,2.91,2.235,4.602,2.945c1.956,0.821,4.046,1.273,6.166,1.334l0,0v-1.334c-1.42-0.111-2.74-0.771-3.681-1.84
			c-0.996-0.921-1.535-2.234-1.473-3.589l0.966-27.287c0.085-2.047-0.276-4.088-1.059-5.982c-0.814-1.721-1.955-3.269-3.359-4.555
			c-1.491-1.424-3.22-2.577-5.108-3.405c-1.989-0.88-4.13-1.365-6.304-1.426l0,0c-2.178-0.08-4.35,0.264-6.396,1.012
			c-1.945,0.709-3.751,1.753-5.338,3.083c-1.54,1.268-2.807,2.833-3.728,4.602c-0.912,1.833-1.414,3.843-1.472,5.89v0.645
			l10.721,0.322l0.322-9.203c0.021-1.384,0.663-2.686,1.749-3.543c1.071-0.992,2.5-1.507,3.958-1.426l0,0
			c1.443,0.018,2.82,0.614,3.819,1.656c1.008,0.932,1.548,2.265,1.472,3.635l-0.46,12.884c-1.755-0.646-3.606-0.988-5.476-1.012l0,0
			c-2.173-0.082-4.343,0.246-6.396,0.966c-1.971,0.683-3.797,1.728-5.384,3.083c-1.511,1.283-2.761,2.845-3.681,4.602
			c-0.911,1.834-1.413,3.843-1.472,5.89c0,0,0,0.368,0,0.552c-0.018,1.863,0.343,3.71,1.058,5.43
			c0.777,1.864,1.919,3.554,3.359,4.97c1.475,1.445,3.207,2.6,5.108,3.405c1.996,0.853,4.135,1.321,6.304,1.38l0,0L62.12,376.053z
			 M68.47,352.171l-0.782,17.716c-0.034,1.368-0.675,2.649-1.749,3.497c-1.084,0.967-2.507,1.463-3.957,1.38l0,0
			c-1.435-0.016-2.807-0.594-3.819-1.611c-0.947-0.878-1.481-2.113-1.473-3.405l0,0l0.828-17.946
			c0.034-1.368,0.675-2.649,1.749-3.497c2.281-1.938,5.659-1.839,7.822,0.23c0.924,0.973,1.378,2.3,1.243,3.635L68.47,352.171
			L68.47,352.171z"/>
		<path fill="#FFFFFF" d="M92.49,372.555c1.474,1.446,3.206,2.601,5.107,3.405c4.012,1.672,8.496,1.819,12.608,0.414
			c1.669-0.632,3.224-1.534,4.602-2.669c1.354,1.237,2.911,2.233,4.602,2.945c1.956,0.819,4.046,1.271,6.166,1.334v-0.599l0,0v-0.69
			c-1.371-0.063-2.668-0.637-3.635-1.611c-0.996-0.921-1.535-2.234-1.473-3.589l0.966-27.287c0.087-2.047-0.274-4.089-1.058-5.982
			c-0.772-1.853-1.916-3.528-3.359-4.923c-1.491-1.424-3.22-2.576-5.107-3.405c-1.989-0.879-4.13-1.364-6.304-1.426l0,0
			c-2.177-0.075-4.349,0.269-6.396,1.012c-1.944,0.711-3.75,1.754-5.338,3.083c-1.54,1.268-2.807,2.833-3.727,4.602
			c-0.928,1.83-1.446,3.839-1.519,5.89v0.645l10.906,0.322l0.322-9.203c0.021-1.384,0.663-2.686,1.749-3.543
			c1.077-0.983,2.501-1.497,3.958-1.426l0,0c1.459,0.005,2.854,0.603,3.865,1.656c1.008,0.932,1.548,2.265,1.473,3.635l-0.46,12.884
			c-1.754-0.646-3.606-0.988-5.476-1.012l0,0c-2.174-0.079-4.343,0.249-6.396,0.966c-1.956,0.688-3.766,1.733-5.338,3.083
			c-1.513,1.281-2.764,2.844-3.681,4.602c-0.928,1.83-1.446,3.839-1.519,5.89c0,0,0,0.368,0,0.552
			c-0.017,1.863,0.343,3.71,1.058,5.43C89.868,369.425,91.027,371.132,92.49,372.555z M110.298,353.413l-0.644,17.716
			c-0.034,1.368-0.675,2.649-1.749,3.497c-1.089,0.958-2.509,1.453-3.958,1.38l0,0c-1.451-0.003-2.841-0.583-3.865-1.61
			c-0.947-0.878-1.481-2.114-1.472-3.405l0,0l0.644-17.716c0.034-1.368,0.675-2.649,1.749-3.497c1.089-0.958,2.509-1.453,3.958-1.38
			l0,0c1.435,0.016,2.806,0.594,3.819,1.61c0.976,0.881,1.528,2.137,1.518,3.451V353.413z"/>
		<path fill="#FFFFFF" d="M130.314,310.527c0.996,0.921,1.535,2.234,1.473,3.589l-1.794,48.822c-0.064,2.07,0.328,4.128,1.15,6.028
			c0.776,1.864,1.918,3.554,3.359,4.969c1.474,1.446,3.206,2.602,5.108,3.405c1.996,0.852,4.134,1.32,6.304,1.38v-1.38l0,0
			c-1.435-0.016-2.806-0.594-3.819-1.61c-0.996-0.921-1.535-2.234-1.472-3.589l1.749-48.822c0.086-2.047-0.274-4.089-1.059-5.982
			c-0.779-1.863-1.921-3.552-3.359-4.97c-1.504-1.382-3.252-2.474-5.154-3.221c-1.969-0.909-4.092-1.44-6.258-1.564l0,0v1.334l0,0
			C127.96,308.944,129.313,309.521,130.314,310.527z"/>
		<path fill="#FFFFFF" d="M334.667,386.13v-0.276c-5.199-22.501-20.292-24.94-26.504-24.94c-5.687,0.078-10.963,2.975-14.081,7.73
			c-0.486,0.823-0.486,1.846,0,2.669c0.468,0.852,1.375,1.368,2.347,1.334c5.498,0.111,10.673,2.615,14.172,6.856
			c4.603,6.258,4.325,16.381-0.553,30.094c-3.308,10.027-12.147,17.214-22.639,18.406c-6.921,0.812-13.908,0.888-20.845,0.229
			l-3.635-0.229c-13.804-0.736-21.857-9.203-21.857-22.363V298.195c0.009-0.917-0.462-1.772-1.242-2.254
			c-0.46-0.276-10.952-6.534-29.496,4.141c-1.267,0.704-1.723,2.3-1.02,3.567c0.386,0.694,1.065,1.176,1.848,1.311
			c0.368,0.322,2.071,2.163,2.991,9.893c0.276,2.163,3.083,44.083,3.083,71.553v21.996c0,13.39,3.589,23.468,10.63,30.094
			c5.475,4.958,12.584,7.727,19.97,7.776h41.414c8.531-0.355,16.763-3.238,23.652-8.283
			C329.566,426.358,338.04,406.169,334.667,386.13z"/>
		<path fill="#FFFFFF" d="M262.562,462.606h-0.645h-2.807c-6.074,0-13.805,2.944-16.29,17.025c-0.039,0.259-0.039,0.522,0,0.782
			c1.887,14.632,10.215,17.716,16.888,17.716h2.255c13.482-2.991,16.427-10.538,16.427-16.428v-2.854
			C278.391,473.236,275.538,465.874,262.562,462.606z"/>
		<path fill="#FFFFFF" d="M300.938,462.606h-0.645h-2.853c-5.614,0-13.022,2.715-16.244,15.69c-0.026,0.214-0.026,0.431,0,0.646
			v1.149c-0.006,0.107-0.006,0.215,0,0.322c1.887,14.632,10.215,17.716,16.888,17.716h2.255
			c13.528-2.854,16.335-10.398,16.335-16.29v-2.991C316.63,473.236,313.915,465.874,300.938,462.606z"/>
		<path fill="#FFFFFF" d="M196.07,295.986c-0.46-0.276-11.136-6.626-30.002,4.188c-1.267,0.703-1.723,2.3-1.019,3.566
			c0.385,0.694,1.065,1.176,1.847,1.311c0.368,0.322,2.163,2.208,3.083,10.124c0,1.196,1.289,21.029,2.163,40.907
			c-0.016,0.168-0.016,0.338,0,0.506c0.415,10.538,0.415,17.394,0.415,22.64c0.23,8.145,0.368,12.24,0.368,19.74v28.069
			c0,21.305-2.163,29.266-4.003,32.211l0,0c-8.007,15.047-19.878,22.409-38.515,23.789c-5.323,0.4-10.675,0.105-15.921-0.874
			l-1.749-0.322c-0.846-0.262-1.707-0.477-2.577-0.644h-0.414l0,0c-6.17-1.619-11.825-4.787-16.428-9.203
			c-3.719-4.791-6.171-10.44-7.132-16.428v-0.553c-3.037-14.173-1.426-25.078,4.602-32.211c9.203-11.09,26.275-10.63,26.458-10.63
			c1.446,0.085,2.687-1.019,2.771-2.465c0.027-0.469-0.071-0.937-0.287-1.354c-3.478-5.855-9.849-9.376-16.657-9.202
			c-8.007,0-27.931,2.023-39.573,27.193v0.23c-8.421,24.11-2.393,45.141,17.439,60.739c6.499,4.851,14.051,8.098,22.041,9.479
			c5.343,1.22,10.809,1.822,16.29,1.795h5.752c14.875-0.053,29.525-3.633,42.748-10.445h0.368
			c19.188-13.535,30.179-35.898,29.173-59.358V298.241C197.321,297.324,196.85,296.469,196.07,295.986z"/>
	</g>
</g>
</svg>
